# xmcd CD database file
#
# Track frame offsets:
#	150
#	18410
#	46550
#	72012
#	116693
#	150734
#	180275
#	204594
#	223525
#	237229
#	251504
#	265931
#	281084
#	296426
#	313249
#
# Disc length: 4454 seconds
#
# Revision: 0
# Processed by: cddbd v1.5.2PL0 Copyright (c) Steve Scherf et al.
# Submitted via: CDex 1.70beta2
#
DISCID=d311640f
DTITLE=Miles Davis - Bebop Story Vol 3 1951-52 Disc 065
DYEAR=2008
DGENRE=Jazz
TTITLE0=Conception
TTITLE1=Out Of The Blue
TTITLE2=Denial
TTITLE3=Bluing
TTITLE4=Dig
TTITLE5=My Old Flame
TTITLE6=It's Only A Paper Moon
TTITLE7=Dear Old Stockholm
TTITLE8=Chance It
TTITLE9=Donna (Dig)
TTITLE10=Donna (Dig)
TTITLE11=Woody'n You
TTITLE12=Woody'n You
TTITLE13=Yesterdy
TTITLE14=How Deep Is The Ocean
EXTD=YEAR: 2008
EXTT0=
EXTT1=
EXTT2=
EXTT3=
EXTT4=
EXTT5=
EXTT6=
EXTT7=
EXTT8=
EXTT9=
EXTT10=
EXTT11=
EXTT12=
EXTT13=
EXTT14=
PLAYORDER=
